<svg xmlns="http://www.w3.org/2000/svg" stroke-linejoin="round" width="2018" height="1018" viewBox="0 0 2018 1018"><defs><marker id="arrow" viewBox="0 0 20 20" refX="2" refY="5" markerUnits="strokeWidth" markerWidth="10" markerHeight="10" orient="auto"><path d="M 0,0 L 10,5 L 0,10 2,5 z" fill="red" fill-opacity="50%" /></marker></defs><rect width="100%" height="100%" fill="white" /><polyline points="3,103 3,3 103,3 103,103" stroke-width="6" stroke="black" fill="none" /><polyline points="103,103 103,3 203,3" stroke-width="6" stroke="black" fill="none" /><polyline points="203,3 303,3 303,103" stroke-width="6" stroke="black" fill="none" /><polyline points="303,103 303,3 403,3" stroke-width="6" stroke="black" fill="none" /><text x="453" y="53" font-size="50px" text-anchor="middle" dominant-baseline="middle">🚶</text><polyline points="403,3 503,3 503,103" stroke-width="6" stroke="black" fill="none" /><polyline points="503,103 503,3 603,3" stroke-width="6" stroke="black" fill="none" /><polyline points="603,3 703,3 703,103" stroke-width="6" stroke="black" fill="none" /><polyline points="703,103 703,3 803,3" stroke-width="6" stroke="black" fill="none" /><polyline points="803,3 903,3 903,103" stroke-width="6" stroke="black" fill="none" /><polyline points="903,103 903,3 1003,3" stroke-width="6" stroke="black" fill="none" /><polyline points="1003,3 1103,3 1103,103" stroke-width="6" stroke="black" fill="none" /><polyline points="1103,103 1103,3 1203,3" stroke-width="6" stroke="black" fill="none" /><polyline points="1203,3 1303,3 1303,103" stroke-width="6" stroke="black" fill="none" /><polyline points="1303,103 1303,3 1403,3" stroke-width="6" stroke="black" fill="none" /><polyline points="1403,3 1503,3 1503,103" stroke-width="6" stroke="black" fill="none" /><polyline points="1503,103 1503,3 1603,3" stroke-width="6" stroke="black" fill="none" /><line x1="1603" y1="3" x2="1703" y2="3" stroke-width="6" stroke="black" fill="none" /><line x1="1603" y1="103" x2="1703" y2="103" stroke-width="6" stroke="black" fill="none" /><line x1="1703" y1="3" x2="1803" y2="3" stroke-width="6" stroke="black" fill="none" /><line x1="1703" y1="103" x2="1803" y2="103" stroke-width="6" stroke="black" fill="none" /><line x1="1803" y1="3" x2="1903" y2="3" stroke-width="6" stroke="black" fill="none" /><line x1="1803" y1="103" x2="1903" y2="103" stroke-width="6" stroke="black" fill="none" /><polyline points="1903,3 2003,3 2003,103" stroke-width="6" stroke="black" fill="none" /><polyline points="103,103 103,203 3,203 3,103" stroke-width="6" stroke="black" fill="none" /><line x1="103" y1="103" x2="103" y2="203" stroke-width="6" stroke="black" fill="none" /><line x1="203" y1="103" x2="203" y2="203" stroke-width="6" stroke="black" fill="none" /><polyline points="303,203 203,203 203,103" stroke-width="6" stroke="black" fill="none" /><polyline points="403,103 403,203 303,203" stroke-width="6" stroke="black" fill="none" /><line x1="403" y1="103" x2="403" y2="203" stroke-width="6" stroke="black" fill="none" /><line x1="503" y1="103" x2="503" y2="203" stroke-width="6" stroke="black" fill="none" /><line x1="503" y1="103" x2="503" y2="203" stroke-width="6" stroke="black" fill="none" /><line x1="603" y1="103" x2="603" y2="203" stroke-width="6" stroke="black" fill="none" /><line x1="603" y1="103" x2="603" y2="203" stroke-width="6" stroke="black" fill="none" /><line x1="703" y1="103" x2="703" y2="203" stroke-width="6" stroke="black" fill="none" /><line x1="703" y1="103" x2="703" y2="203" stroke-width="6" stroke="black" fill="none" /><line x1="803" y1="103" x2="803" y2="203" stroke-width="6" stroke="black" fill="none" /><line x1="803" y1="103" x2="803" y2="203" stroke-width="6" stroke="black" fill="none" /><line x1="903" y1="103" x2="903" y2="203" stroke-width="6" stroke="black" fill="none" /><line x1="903" y1="103" x2="903" y2="203" stroke-width="6" stroke="black" fill="none" /><line x1="1003" y1="103" x2="1003" y2="203" stroke-width="6" stroke="black" fill="none" /><line x1="1003" y1="103" x2="1003" y2="203" stroke-width="6" stroke="black" fill="none" /><line x1="1103" y1="103" x2="1103" y2="203" stroke-width="6" stroke="black" fill="none" /><line x1="1103" y1="103" x2="1103" y2="203" stroke-width="6" stroke="black" fill="none" /><line x1="1203" y1="103" x2="1203" y2="203" stroke-width="6" stroke="black" fill="none" /><line x1="1203" y1="103" x2="1203" y2="203" stroke-width="6" stroke="black" fill="none" /><line x1="1303" y1="103" x2="1303" y2="203" stroke-width="6" stroke="black" fill="none" /><line x1="1303" y1="103" x2="1303" y2="203" stroke-width="6" stroke="black" fill="none" /><line x1="1403" y1="103" x2="1403" y2="203" stroke-width="6" stroke="black" fill="none" /><line x1="1403" y1="103" x2="1403" y2="203" stroke-width="6" stroke="black" fill="none" /><line x1="1503" y1="103" x2="1503" y2="203" stroke-width="6" stroke="black" fill="none" /><line x1="1503" y1="103" x2="1503" y2="203" stroke-width="6" stroke="black" fill="none" /><line x1="1603" y1="103" x2="1603" y2="203" stroke-width="6" stroke="black" fill="none" /><polyline points="1603,203 1603,103 1703,103" stroke-width="6" stroke="black" fill="none" /><line x1="1703" y1="103" x2="1803" y2="103" stroke-width="6" stroke="black" fill="none" /><line x1="1703" y1="203" x2="1803" y2="203" stroke-width="6" stroke="black" fill="none" /><line x1="1803" y1="103" x2="1903" y2="103" stroke-width="6" stroke="black" fill="none" /><line x1="1803" y1="203" x2="1903" y2="203" stroke-width="6" stroke="black" fill="none" /><polyline points="2003,103 2003,203 1903,203" stroke-width="6" stroke="black" fill="none" /><rect width="100" height="100" stroke-width="6" stroke="none" fill="lightgray" x="3" y="203" /><polygon points="3,203 103,203 103,303 3,303" stroke-width="6" stroke="black" fill="none" /><polyline points="203,303 103,303 103,203" stroke-width="6" stroke="black" fill="none" /><line x1="203" y1="203" x2="303" y2="203" stroke-width="6" stroke="black" fill="none" /><line x1="203" y1="303" x2="303" y2="303" stroke-width="6" stroke="black" fill="none" /><polyline points="303,203 403,203 403,303" stroke-width="6" stroke="black" fill="none" /><polyline points="503,303 403,303 403,203" stroke-width="6" stroke="black" fill="none" /><polyline points="603,203 603,303 503,303" stroke-width="6" stroke="black" fill="none" /><polyline points="703,303 603,303 603,203" stroke-width="6" stroke="black" fill="none" /><polyline points="803,203 803,303 703,303" stroke-width="6" stroke="black" fill="none" /><line x1="803" y1="203" x2="803" y2="303" stroke-width="6" stroke="black" fill="none" /><line x1="903" y1="203" x2="903" y2="303" stroke-width="6" stroke="black" fill="none" /><line x1="903" y1="203" x2="903" y2="303" stroke-width="6" stroke="black" fill="none" /><line x1="1003" y1="203" x2="1003" y2="303" stroke-width="6" stroke="black" fill="none" /><line x1="1003" y1="203" x2="1003" y2="303" stroke-width="6" stroke="black" fill="none" /><line x1="1103" y1="203" x2="1103" y2="303" stroke-width="6" stroke="black" fill="none" /><line x1="1103" y1="203" x2="1103" y2="303" stroke-width="6" stroke="black" fill="none" /><line x1="1203" y1="203" x2="1203" y2="303" stroke-width="6" stroke="black" fill="none" /><line x1="1203" y1="203" x2="1203" y2="303" stroke-width="6" stroke="black" fill="none" /><line x1="1303" y1="203" x2="1303" y2="303" stroke-width="6" stroke="black" fill="none" /><line x1="1303" y1="203" x2="1303" y2="303" stroke-width="6" stroke="black" fill="none" /><line x1="1403" y1="203" x2="1403" y2="303" stroke-width="6" stroke="black" fill="none" /><polyline points="1503,303 1403,303 1403,203" stroke-width="6" stroke="black" fill="none" /><polyline points="1603,203 1603,303 1503,303" stroke-width="6" stroke="black" fill="none" /><polyline points="1703,303 1603,303 1603,203" stroke-width="6" stroke="black" fill="none" /><line x1="1703" y1="203" x2="1803" y2="203" stroke-width="6" stroke="black" fill="none" /><line x1="1703" y1="303" x2="1803" y2="303" stroke-width="6" stroke="black" fill="none" /><polyline points="1803,203 1903,203 1903,303" stroke-width="6" stroke="black" fill="none" /><rect width="100" height="100" stroke-width="6" stroke="none" fill="lightgray" x="1903" y="203" /><polygon points="1903,203 2003,203 2003,303 1903,303" stroke-width="6" stroke="black" fill="none" /><polyline points="3,403 3,303 103,303" stroke-width="6" stroke="black" fill="none" /><line x1="103" y1="303" x2="203" y2="303" stroke-width="6" stroke="black" fill="none" /><line x1="103" y1="403" x2="203" y2="403" stroke-width="6" stroke="black" fill="none" /><line x1="203" y1="303" x2="303" y2="303" stroke-width="6" stroke="black" fill="none" /><line x1="203" y1="403" x2="303" y2="403" stroke-width="6" stroke="black" fill="none" /><polyline points="403,303 403,403 303,403" stroke-width="6" stroke="black" fill="none" /><polyline points="403,403 403,303 503,303" stroke-width="6" stroke="black" fill="none" /><line x1="503" y1="303" x2="603" y2="303" stroke-width="6" stroke="black" fill="none" /><line x1="503" y1="403" x2="603" y2="403" stroke-width="6" stroke="black" fill="none" /><line x1="603" y1="303" x2="703" y2="303" stroke-width="6" stroke="black" fill="none" /><line x1="603" y1="403" x2="703" y2="403" stroke-width="6" stroke="black" fill="none" /><polyline points="703,303 803,303 803,403" stroke-width="6" stroke="black" fill="none" /><line x1="803" y1="303" x2="803" y2="403" stroke-width="6" stroke="black" fill="none" /><line x1="903" y1="303" x2="903" y2="403" stroke-width="6" stroke="black" fill="none" /><line x1="903" y1="303" x2="903" y2="403" stroke-width="6" stroke="black" fill="none" /><line x1="1003" y1="303" x2="1003" y2="403" stroke-width="6" stroke="black" fill="none" /><polyline points="1103,403 1003,403 1003,303" stroke-width="6" stroke="black" fill="none" /><polyline points="1203,303 1203,403 1103,403" stroke-width="6" stroke="black" fill="none" /><polyline points="1303,403 1203,403 1203,303" stroke-width="6" stroke="black" fill="none" /><polyline points="1403,303 1403,403 1303,403" stroke-width="6" stroke="black" fill="none" /><rect width="100" height="100" stroke-width="6" stroke="none" fill="lightgray" x="1403" y="303" /><polygon points="1403,303 1503,303 1503,403 1403,403" stroke-width="6" stroke="black" fill="none" /><polyline points="1503,403 1503,303 1603,303" stroke-width="6" stroke="black" fill="none" /><polyline points="1603,303 1703,303 1703,403" stroke-width="6" stroke="black" fill="none" /><polyline points="1703,403 1703,303 1803,303" stroke-width="6" stroke="black" fill="none" /><polyline points="1903,303 1903,403 1803,403" stroke-width="6" stroke="black" fill="none" /><rect width="100" height="100" stroke-width="6" stroke="none" fill="lightgray" x="1903" y="303" /><polygon points="1903,303 2003,303 2003,403 1903,403" stroke-width="6" stroke="black" fill="none" /><polyline points="103,503 3,503 3,403" stroke-width="6" stroke="black" fill="none" /><line x1="103" y1="403" x2="203" y2="403" stroke-width="6" stroke="black" fill="none" /><line x1="103" y1="503" x2="203" y2="503" stroke-width="6" stroke="black" fill="none" /><line x1="203" y1="403" x2="303" y2="403" stroke-width="6" stroke="black" fill="none" /><line x1="203" y1="503" x2="303" y2="503" stroke-width="6" stroke="black" fill="none" /><line x1="303" y1="403" x2="403" y2="403" stroke-width="6" stroke="black" fill="none" /><line x1="303" y1="503" x2="403" y2="503" stroke-width="6" stroke="black" fill="none" /><polyline points="503,403 503,503 403,503" stroke-width="6" stroke="black" fill="none" /><polyline points="503,503 503,403 603,403" stroke-width="6" stroke="black" fill="none" /><line x1="603" y1="403" x2="703" y2="403" stroke-width="6" stroke="black" fill="none" /><line x1="603" y1="503" x2="703" y2="503" stroke-width="6" stroke="black" fill="none" /><polyline points="803,403 803,503 703,503" stroke-width="6" stroke="black" fill="none" /><polyline points="903,503 803,503 803,403" stroke-width="6" stroke="black" fill="none" /><polyline points="1003,403 1003,503 903,503" stroke-width="6" stroke="black" fill="none" /><rect width="100" height="100" stroke-width="6" stroke="none" fill="lightgray" x="1003" y="403" /><polygon points="1003,403 1103,403 1103,503 1003,503" stroke-width="6" stroke="black" fill="none" /><rect width="100" height="100" stroke-width="6" stroke="none" fill="lightgray" x="1103" y="403" /><polygon points="1103,403 1203,403 1203,503 1103,503" stroke-width="6" stroke="black" fill="none" /><rect width="100" height="100" stroke-width="6" stroke="none" fill="lightgray" x="1203" y="403" /><polygon points="1203,403 1303,403 1303,503 1203,503" stroke-width="6" stroke="black" fill="none" /><rect width="100" height="100" stroke-width="6" stroke="none" fill="lightgray" x="1303" y="403" /><polygon points="1303,403 1403,403 1403,503 1303,503" stroke-width="6" stroke="black" fill="none" /><polyline points="1403,503 1403,403 1503,403" stroke-width="6" stroke="black" fill="none" /><polyline points="1603,403 1603,503 1503,503" stroke-width="6" stroke="black" fill="none" /><polyline points="1703,503 1603,503 1603,403" stroke-width="6" stroke="black" fill="none" /><polyline points="1803,403 1803,503 1703,503" stroke-width="6" stroke="black" fill="none" /><rect width="100" height="100" stroke-width="6" stroke="none" fill="lightgray" x="1803" y="403" /><polygon points="1803,403 1903,403 1903,503 1803,503" stroke-width="6" stroke="black" fill="none" /><polyline points="1903,503 1903,403 2003,403 2003,503" stroke-width="6" stroke="black" fill="none" /><polyline points="3,603 3,503 103,503 103,603" stroke-width="6" stroke="black" fill="none" /><rect width="100" height="100" stroke-width="6" stroke="none" fill="lightgray" x="103" y="503" /><polygon points="103,503 203,503 203,603 103,603" stroke-width="6" stroke="black" fill="none" /><rect width="100" height="100" stroke-width="6" stroke="none" fill="lightgray" x="203" y="503" /><polygon points="203,503 303,503 303,603 203,603" stroke-width="6" stroke="black" fill="none" /><polyline points="303,603 303,503 403,503" stroke-width="6" stroke="black" fill="none" /><line x1="403" y1="503" x2="503" y2="503" stroke-width="6" stroke="black" fill="none" /><line x1="403" y1="603" x2="503" y2="603" stroke-width="6" stroke="black" fill="none" /><polyline points="603,503 603,603 503,603" stroke-width="6" stroke="black" fill="none" /><polyline points="603,603 603,503 703,503" stroke-width="6" stroke="black" fill="none" /><line x1="703" y1="503" x2="803" y2="503" stroke-width="6" stroke="black" fill="none" /><line x1="703" y1="603" x2="803" y2="603" stroke-width="6" stroke="black" fill="none" /><line x1="803" y1="503" x2="903" y2="503" stroke-width="6" stroke="black" fill="none" /><line x1="803" y1="603" x2="903" y2="603" stroke-width="6" stroke="black" fill="none" /><line x1="903" y1="503" x2="1003" y2="503" stroke-width="6" stroke="black" fill="none" /><line x1="903" y1="603" x2="1003" y2="603" stroke-width="6" stroke="black" fill="none" /><polyline points="1003,503 1103,503 1103,603" stroke-width="6" stroke="black" fill="none" /><polyline points="1203,603 1103,603 1103,503 1203,503" stroke-width="6" stroke="black" fill="none" /><polyline points="1203,503 1303,503 1303,603 1203,603" stroke-width="6" stroke="black" fill="none" /><rect width="100" height="100" stroke-width="6" stroke="none" fill="lightgray" x="1303" y="503" /><polygon points="1303,503 1403,503 1403,603 1303,603" stroke-width="6" stroke="black" fill="none" /><polyline points="1503,603 1403,603 1403,503" stroke-width="6" stroke="black" fill="none" /><polyline points="1503,503 1603,503 1603,603" stroke-width="6" stroke="black" fill="none" /><rect width="100" height="100" stroke-width="6" stroke="none" fill="lightgray" x="1603" y="503" /><polygon points="1603,503 1703,503 1703,603 1603,603" stroke-width="6" stroke="black" fill="none" /><rect width="100" height="100" stroke-width="6" stroke="none" fill="lightgray" x="1703" y="503" /><polygon points="1703,503 1803,503 1803,603 1703,603" stroke-width="6" stroke="black" fill="none" /><rect width="100" height="100" stroke-width="6" stroke="none" fill="lightgray" x="1803" y="503" /><polygon points="1803,503 1903,503 1903,603 1803,603" stroke-width="6" stroke="black" fill="none" /><polyline points="2003,503 2003,603 1903,603 1903,503" stroke-width="6" stroke="black" fill="none" /><polyline points="103,603 103,703 3,703 3,603" stroke-width="6" stroke="black" fill="none" /><rect width="100" height="100" stroke-width="6" stroke="none" fill="lightgray" x="103" y="603" /><polygon points="103,603 203,603 203,703 103,703" stroke-width="6" stroke="black" fill="none" /><polyline points="203,703 203,603 303,603" stroke-width="6" stroke="black" fill="none" /><polyline points="403,603 403,703 303,703" stroke-width="6" stroke="black" fill="none" /><polyline points="403,703 403,603 503,603" stroke-width="6" stroke="black" fill="none" /><polyline points="503,603 603,603 603,703" stroke-width="6" stroke="black" fill="none" /><polyline points="703,703 603,703 603,603" stroke-width="6" stroke="black" fill="none" /><polyline points="703,603 803,603 803,703" stroke-width="6" stroke="black" fill="none" /><polyline points="803,703 803,603 903,603" stroke-width="6" stroke="black" fill="none" /><line x1="903" y1="603" x2="1003" y2="603" stroke-width="6" stroke="black" fill="none" /><line x1="903" y1="703" x2="1003" y2="703" stroke-width="6" stroke="black" fill="none" /><polyline points="1103,603 1103,703 1003,703" stroke-width="6" stroke="black" fill="none" /><polyline points="1103,703 1103,603 1203,603" stroke-width="6" stroke="black" fill="none" /><polyline points="1203,603 1303,603 1303,703" stroke-width="6" stroke="black" fill="none" /><rect width="100" height="100" stroke-width="6" stroke="none" fill="lightgray" x="1303" y="603" /><polygon points="1303,603 1403,603 1403,703 1303,703" stroke-width="6" stroke="black" fill="none" /><rect width="100" height="100" stroke-width="6" stroke="none" fill="lightgray" x="1403" y="603" /><polygon points="1403,603 1503,603 1503,703 1403,703" stroke-width="6" stroke="black" fill="none" /><polyline points="1603,703 1503,703 1503,603" stroke-width="6" stroke="black" fill="none" /><line x1="1603" y1="603" x2="1703" y2="603" stroke-width="6" stroke="black" fill="none" /><line x1="1603" y1="703" x2="1703" y2="703" stroke-width="6" stroke="black" fill="none" /><line x1="1703" y1="603" x2="1803" y2="603" stroke-width="6" stroke="black" fill="none" /><line x1="1703" y1="703" x2="1803" y2="703" stroke-width="6" stroke="black" fill="none" /><line x1="1803" y1="603" x2="1903" y2="603" stroke-width="6" stroke="black" fill="none" /><line x1="1803" y1="703" x2="1903" y2="703" stroke-width="6" stroke="black" fill="none" /><polyline points="1903,603 2003,603 2003,703" stroke-width="6" stroke="black" fill="none" /><polyline points="3,803 3,703 103,703 103,803" stroke-width="6" stroke="black" fill="none" /><rect width="100" height="100" stroke-width="6" stroke="none" fill="lightgray" x="103" y="703" /><polygon points="103,703 203,703 203,803 103,803" stroke-width="6" stroke="black" fill="none" /><polyline points="303,803 203,803 203,703" stroke-width="6" stroke="black" fill="none" /><line x1="303" y1="703" x2="403" y2="703" stroke-width="6" stroke="black" fill="none" /><line x1="303" y1="803" x2="403" y2="803" stroke-width="6" stroke="black" fill="none" /><polyline points="503,703 503,803 403,803" stroke-width="6" stroke="black" fill="none" /><polyline points="603,803 503,803 503,703" stroke-width="6" stroke="black" fill="none" /><polyline points="603,703 703,703 703,803" stroke-width="6" stroke="black" fill="none" /><line x1="703" y1="703" x2="703" y2="803" stroke-width="6" stroke="black" fill="none" /><line x1="803" y1="703" x2="803" y2="803" stroke-width="6" stroke="black" fill="none" /><line x1="803" y1="703" x2="803" y2="803" stroke-width="6" stroke="black" fill="none" /><line x1="903" y1="703" x2="903" y2="803" stroke-width="6" stroke="black" fill="none" /><polyline points="903,803 903,703 1003,703" stroke-width="6" stroke="black" fill="none" /><polyline points="1003,703 1103,703 1103,803" stroke-width="6" stroke="black" fill="none" /><line x1="1103" y1="703" x2="1103" y2="803" stroke-width="6" stroke="black" fill="none" /><line x1="1203" y1="703" x2="1203" y2="803" stroke-width="6" stroke="black" fill="none" /><polyline points="1303,803 1203,803 1203,703" stroke-width="6" stroke="black" fill="none" /><polyline points="1303,703 1403,703 1403,803" stroke-width="6" stroke="black" fill="none" /><polyline points="1403,803 1403,703 1503,703" stroke-width="6" stroke="black" fill="none" /><line x1="1503" y1="703" x2="1603" y2="703" stroke-width="6" stroke="black" fill="none" /><line x1="1503" y1="803" x2="1603" y2="803" stroke-width="6" stroke="black" fill="none" /><polyline points="1603,703 1703,703 1703,803" stroke-width="6" stroke="black" fill="none" /><polyline points="1703,803 1703,703 1803,703" stroke-width="6" stroke="black" fill="none" /><polyline points="1803,703 1903,703 1903,803" stroke-width="6" stroke="black" fill="none" /><line x1="1903" y1="703" x2="1903" y2="803" stroke-width="6" stroke="black" fill="none" /><line x1="2003" y1="703" x2="2003" y2="803" stroke-width="6" stroke="black" fill="none" /><polyline points="103,803 103,903 3,903 3,803" stroke-width="6" stroke="black" fill="none" /><rect width="100" height="100" stroke-width="6" stroke="none" fill="lightgray" x="103" y="803" /><polygon points="103,803 203,803 203,903 103,903" stroke-width="6" stroke="black" fill="none" /><polyline points="303,903 203,903 203,803 303,803" stroke-width="6" stroke="black" fill="none" /><polyline points="303,803 403,803 403,903" stroke-width="6" stroke="black" fill="none" /><rect width="100" height="100" stroke-width="6" stroke="none" fill="lightgray" x="403" y="803" /><polygon points="403,803 503,803 503,903 403,903" stroke-width="6" stroke="black" fill="none" /><polyline points="503,903 503,803 603,803" stroke-width="6" stroke="black" fill="none" /><polyline points="703,803 703,903 603,903" stroke-width="6" stroke="black" fill="none" /><line x1="703" y1="803" x2="703" y2="903" stroke-width="6" stroke="black" fill="none" /><line x1="803" y1="803" x2="803" y2="903" stroke-width="6" stroke="black" fill="none" /><line x1="803" y1="803" x2="803" y2="903" stroke-width="6" stroke="black" fill="none" /><line x1="903" y1="803" x2="903" y2="903" stroke-width="6" stroke="black" fill="none" /><line x1="903" y1="803" x2="903" y2="903" stroke-width="6" stroke="black" fill="none" /><line x1="1003" y1="803" x2="1003" y2="903" stroke-width="6" stroke="black" fill="none" /><line x1="1003" y1="803" x2="1003" y2="903" stroke-width="6" stroke="black" fill="none" /><line x1="1103" y1="803" x2="1103" y2="903" stroke-width="6" stroke="black" fill="none" /><line x1="1103" y1="803" x2="1103" y2="903" stroke-width="6" stroke="black" fill="none" /><line x1="1203" y1="803" x2="1203" y2="903" stroke-width="6" stroke="black" fill="none" /><polyline points="1203,903 1203,803 1303,803" stroke-width="6" stroke="black" fill="none" /><polyline points="1403,803 1403,903 1303,903" stroke-width="6" stroke="black" fill="none" /><polyline points="1503,903 1403,903 1403,803" stroke-width="6" stroke="black" fill="none" /><polyline points="1503,803 1603,803 1603,903" stroke-width="6" stroke="black" fill="none" /><line x1="1603" y1="803" x2="1603" y2="903" stroke-width="6" stroke="black" fill="none" /><line x1="1703" y1="803" x2="1703" y2="903" stroke-width="6" stroke="black" fill="none" /><line x1="1703" y1="803" x2="1703" y2="903" stroke-width="6" stroke="black" fill="none" /><line x1="1803" y1="803" x2="1803" y2="903" stroke-width="6" stroke="black" fill="none" /><polyline points="1903,903 1803,903 1803,803" stroke-width="6" stroke="black" fill="none" /><polyline points="2003,803 2003,903 1903,903" stroke-width="6" stroke="black" fill="none" /><polyline points="103,1003 3,1003 3,903 103,903" stroke-width="6" stroke="black" fill="none" /><polyline points="103,903 203,903 203,1003 103,1003" stroke-width="6" stroke="black" fill="none" /><rect width="100" height="100" stroke-width="6" stroke="none" fill="lightgray" x="203" y="903" /><polygon points="203,903 303,903 303,1003 203,1003" stroke-width="6" stroke="black" fill="none" /><polyline points="403,1003 303,1003 303,903" stroke-width="6" stroke="black" fill="none" /><polyline points="403,903 503,903 503,1003 403,1003" stroke-width="6" stroke="black" fill="none" /><polyline points="603,1003 503,1003 503,903" stroke-width="6" stroke="black" fill="none" /><line x1="603" y1="903" x2="703" y2="903" stroke-width="6" stroke="black" fill="none" /><line x1="603" y1="1003" x2="703" y2="1003" stroke-width="6" stroke="black" fill="none" /><polyline points="803,903 803,1003 703,1003" stroke-width="6" stroke="black" fill="none" /><polyline points="903,1003 803,1003 803,903" stroke-width="6" stroke="black" fill="none" /><polyline points="1003,903 1003,1003 903,1003" stroke-width="6" stroke="black" fill="none" /><polyline points="1103,1003 1003,1003 1003,903" stroke-width="6" stroke="black" fill="none" /><polyline points="1203,903 1203,1003 1103,1003" stroke-width="6" stroke="black" fill="none" /><polyline points="1303,1003 1203,1003 1203,903" stroke-width="6" stroke="black" fill="none" /><line x1="1303" y1="903" x2="1403" y2="903" stroke-width="6" stroke="black" fill="none" /><line x1="1303" y1="1003" x2="1403" y2="1003" stroke-width="6" stroke="black" fill="none" /><line x1="1403" y1="903" x2="1503" y2="903" stroke-width="6" stroke="black" fill="none" /><line x1="1403" y1="1003" x2="1503" y2="1003" stroke-width="6" stroke="black" fill="none" /><polyline points="1603,903 1603,1003 1503,1003" stroke-width="6" stroke="black" fill="none" /><polyline points="1703,1003 1603,1003 1603,903" stroke-width="6" stroke="black" fill="none" /><polyline points="1803,903 1803,1003 1703,1003" stroke-width="6" stroke="black" fill="none" /><rect width="100" height="100" stroke-width="6" stroke="none" fill="lightgray" x="1803" y="903" /><polygon points="1803,903 1903,903 1903,1003 1803,1003" stroke-width="6" stroke="black" fill="none" /><rect width="100" height="100" stroke-width="6" stroke="none" fill="lightgray" x="1903" y="903" /><polygon points="1903,903 2003,903 2003,1003 1903,1003" stroke-width="6" stroke="black" fill="none" /><polyline points="453,53 353,53 353,153 253,153 253,53 153,53 153,253 353,253 353,353 53,353 53,453 453,453 453,353 753,353 753,453 553,453 553,553 353,553 353,653 253,653 253,753 453,753 453,653 553,653 553,753 653,753 653,853 553,853 553,953 753,953 753,653 653,653 653,553 1053,553 1053,653 853,653 853,953 953,953 953,753 1053,753 1053,953 1153,953 1153,653 1253,653 1253,753 1353,753 1353,853 1253,853 1253,953 1553,953 1553,853 1453,853 1453,753 1653,753 1653,953 1753,953 1753,753 1853,753 1853,853 1953,853 1953,653 1553,653 1553,553 1453,553 1453,453 1553,453 1553,353 1653,353 1653,453 1753,453 1753,353 1853,353 1853,253 1653,253 1653,153 1953,153 1953,53 1553,53 1553,253 1453,253 1453,53 1353,53 1353,353 1253,353 1253,53 1153,53 1153,353 1053,353 1053,53 953,53 953,453 853,453 853,53 753,53 753,253 653,253 653,53 553,53 553,253 453,253 453,53" stroke-width="12" stroke-opacity="50%" stroke="red" fill="none" marker-end="url(#arrow)" /></svg>